<?xml version="1.0" encoding="utf-8"?><!-- Uploaded to: SVG Repo, www.svgrepo.com, Generator: SVG Repo Mixer Tools -->
<svg version="1.1" id="Uploaded to svgrepo.com" xmlns="http://www.w3.org/2000/svg" xmlns:xlink="http://www.w3.org/1999/xlink" 
	 viewBox="0 0 32 32" xml:space="preserve">
<path class="stone_een" fill="currentColor" d="M27.689,25.757C27.847,26.388,27.37,27,26.719,27H18v0h-4v0H5.281c-0.651,0-1.128-0.611-0.97-1.243l0.5-2
	C4.922,23.312,5.322,23,5.781,23h0.095h20.248h0.095c0.459,0,0.859,0.312,0.97,0.757L27.689,25.757z M14,28c0,1.105,0.895,2,2,2
	s2-0.895,2-2H14z M12,11c-0.551,0-1,0.449-1,1s0.449,1,1,1s1-0.449,1-1S12.551,11,12,11z M25.559,22H6.441
	C6.797,21.226,7,20.383,7,19.515V14c0-4.414,3.18-8.078,7.372-8.845C14.14,4.828,14,4.431,14,4c0-1.239,1.126-2.215,2.411-1.959
	c0.728,0.145,1.339,0.723,1.523,1.442c0.161,0.629,0.017,1.218-0.305,1.671C21.821,5.922,25,9.586,25,14v5.515
	C25,20.383,25.203,21.226,25.559,22z M14,12c0-1.105-0.895-2-2-2s-2,0.895-2,2s0.895,2,2,2S14,13.105,14,12z M17,4
	c0-0.552-0.448-1-1-1s-1,0.448-1,1c0,0.552,0.448,1,1,1S17,4.552,17,4z"/>
</svg>