<?xml version="1.0" encoding="iso-8859-1"?>
<!-- Uploaded to: SVG Repo, www.svgrepo.com, Generator: SVG Repo Mixer Tools -->
<svg fill="currentColor" version="1.1" id="Layer_1" xmlns="http://www.w3.org/2000/svg" xmlns:xlink="http://www.w3.org/1999/xlink" 
	 viewBox="0 0 511.998 511.998" xml:space="preserve">
<g>
	<g>
		<path d="M179.34,262.92c-9.217,0-16.716,7.499-16.716,16.716s7.499,16.716,16.716,16.716c9.217,0,16.716-7.499,16.716-16.716
			C196.056,270.419,188.559,262.92,179.34,262.92z"/>
	</g>
</g>
<g>
	<g>
		<path d="M379.934,262.92c-9.217,0-16.716,7.499-16.716,16.716s7.499,16.716,16.716,16.716c9.217,0,16.716-7.499,16.716-16.716
			C396.65,270.419,389.152,262.92,379.934,262.92z"/>
	</g>
</g>
<g>
	<g>
		<path d="M474.505,354.619l22.789-22.805c19.596-19.573,19.616-51.325,0-70.919L291.456,55.058l-47.275,47.28
			c-6.529,6.529-17.107,6.53-23.638,0c-6.529-6.524-6.529-17.108,0-23.638l47.275-47.28l-16.716-16.717
			c-19.548-19.558-51.268-19.638-70.924,0.007l-22.811,22.794l-11.514-8.2C113.358,6.17,67.665,8.998,38.341,38.342
			C9.382,67.306,5.584,112.524,29.309,145.864l8.184,11.514l-22.789,22.805c-19.596,19.573-19.616,51.325,0,70.919l16.716,16.716
			l47.275-47.275c6.529-6.529,17.108-6.529,23.638,0c6.529,6.524,6.529,17.113,0,23.638l-47.275,47.275l205.839,205.839
			c19.548,19.559,51.268,19.639,70.924-0.006l22.811-22.8l11.525,8.228c32.14,22.971,77.86,20.592,107.501-9.06
			c28.959-28.965,32.758-74.183,9.032-107.523L474.505,354.619z M125.981,173.262l47.275-47.281c6.529-6.529,17.108-6.529,23.638,0
			c6.529,6.524,6.529,17.108,0,23.638l-47.275,47.281c-6.529,6.529-17.107,6.53-23.638,0
			C119.452,190.376,119.452,179.791,125.981,173.262z M179.34,329.785c-27.653,0-50.148-22.495-50.148-50.148
			s22.495-50.148,50.148-50.148s50.148,22.495,50.148,50.148S206.994,329.785,179.34,329.785z M296.353,396.649
			c0,9.234-7.488,16.716-16.716,16.716c-9.228,0-16.716-7.482-16.716-16.716V162.624c0-9.234,7.488-16.716,16.716-16.716
			c9.228,0,16.716,7.482,16.716,16.716V396.649z M379.934,329.785c-27.653,0-50.148-22.495-50.148-50.148
			s22.495-50.148,50.148-50.148s50.148,22.495,50.148,50.148S407.588,329.785,379.934,329.785z"/>
	</g>
</g>
</svg>