<?xml version="1.0" encoding="iso-8859-1"?>
<!-- Uploaded to: SVG Repo, www.svgrepo.com, Generator: SVG Repo Mixer Tools -->
<svg fill="currentColor" version="1.1" id="Layer_1" xmlns="http://www.w3.org/2000/svg" xmlns:xlink="http://www.w3.org/1999/xlink" 
	 viewBox="0 0 512 512" xml:space="preserve">
<g>
	<g>
		<path d="M337.597,328.78l-13.809-71.289l-25.838,15.116c-10.139,5.936-22.885,2.226-28.561-7.476l-9.613-16.43l-25.404,2.575
			c-6.939,0.704-13.915-2.069-18.439-7.755c-7.772,2.703-14.108,2.152-21.369,0.279l-16.46,84.979
			c-1.338,6.909,3.957,13.302,10.963,13.302c4.328,0,9.522,0,15.337,0v145.799c0,13.321,10.799,24.12,24.12,24.12
			c13.321,0,24.12-10.799,24.12-24.12V342.082c3.467,0,6.946,0,10.413,0V487.88c0,13.321,10.799,24.12,24.12,24.12
			c13.321,0,24.12-10.799,24.12-24.12V342.082c5.815,0,11.009,0,15.338,0C333.618,342.082,338.933,335.681,337.597,328.78z"/>
	</g>
</g>
<g>
	<g>
		<path d="M271.811,145.673c-0.502,0-47.157,4.748-47.656,4.798c-3.474,0.353-6.004,3.454-5.653,6.928l2.525,24.902
			c3.083,1.679,5.833,3.812,8.193,6.286c0.109-1.092,0.28-2.183,0.563-3.265c1.413-5.394,4.841-9.916,9.654-12.732l38.402-22.467
			C277.028,147.508,274.594,145.673,271.811,145.673z"/>
	</g>
</g>
<g>
	<g>
		<path d="M238.514,212.359c-0.046,2.584-0.384,5.203-1.057,7.816c-1.567,6.078-4.72,11.318-8.878,15.437
			c1.249,0.902,2.745,1.346,4.326,1.185l18.792-1.906L238.514,212.359z"/>
	</g>
</g>
<g>
	<g>
		<path d="M315.47,244.311c-17.972,4.633-36.281-6.181-40.91-24.137c-4.63-17.962,6.176-36.277,24.137-40.91l5.832-1.504
			l-8.311-14.204c-1.763-3.015-5.638-4.027-8.65-2.264l-40.785,23.861c-3.014,1.763-4.027,5.636-2.264,8.65l37.43,63.976
			c1.763,3.013,5.635,4.028,8.65,2.264l28.485-16.666L315.47,244.311z"/>
	</g>
</g>
<g>
	<g>
		<circle cx="257.846" cy="43.898" r="43.898"/>
	</g>
</g>
<g>
	<g>
		<path d="M382.567,182.336c-2.305-2.82-37.864-45.32-42.6-50.903C329.6,119.21,315.404,102.47,292.67,102.47
			c-29.172,0-43.552,0-73.321,0c-22.734,0-36.93,16.74-47.296,28.962c-4.791,5.646-40.174,47.926-43.476,51.976
			c-9.269,11.359-3.62,28.515,10.555,32.169l60.784,15.674c10.748,2.772,21.711-3.696,24.482-14.443
			c2.772-10.749-3.696-21.711-14.445-24.482l-30.205-7.789c13.546-16.275,16.755-19.821,24.205-28.565
			c0.387-10.326,8.336-18.925,18.734-19.98c51.003-5.17,47.613-4.872,49.124-4.872c9.37,0,17.348,6.13,19.963,14.786
			c7.237,0.357,13.59,4.459,17.007,10.301c2.414,4.125-1.399-1.574,23.488,28.329l-30.205,7.789
			c-10.75,2.772-17.217,13.733-14.445,24.481c2.773,10.75,13.734,17.217,24.482,14.444l60.784-15.674
			C385.854,212.233,393.855,196.146,382.567,182.336z"/>
	</g>
</g>
</svg>