<svg xmlns="http://www.w3.org/2000/svg" enable-background="new 0 0 64 64" viewBox="0 0 64 64" id="tenant">
    <path fill="currentColor" d="M55.1 12.4c-1.9.5-3.8 1.4-5.6 2.7-.1 0-.1.1-.2.1-3.8 4.2-7.3 6.6-10.6 7.2-1 .2-2 .6-3 1.1-.6.3-1.3.1-1.6-.5-.1-.3-.2-.7.2-1.1l0 0c0 0 .1-.1.2-.2l4.8-3.2c.7-.4 1.1-1.1 1.2-1.8 0 0 0 0 0-.1l0 0c.1-.8-.1-1.6-.6-2.2-1-1.2-3.1-1.3-4.2-.2-1.5 1.5-2.6 3.3-3.3 5.2-.4 1.2-1.2 3.1-2.3 5.5-.5 1.2-1.7 1.9-2.9 2L29.9 16C31.8 8 39 2.3 47.4 2.3h7.7C55.1 2.3 55.1 12.4 55.1 12.4zM38.5 16.3L38.5 16.3 38.5 16.3c0 .2-.2.4-.4.5l-3.5 2.4c.6-1.3 1.4-2.5 2.4-3.5.2-.2.4-.2.6-.2M61.9 14.5h-2.8c-1.1 0-2-.9-2-2V2c0-1.1.9-2 2-2h2.8V14.5zM15.1 61.7l-3 2.3-10-13.4 3-2.3c.8-.6 2.1-.4 2.7.4l7.3 9.8 0 0 .4.5C16.2 59.9 16 61.1 15.1 61.7zM48.8 47c-3 2.5-6.5 4.7-10.3 6.7-2.2 1.1-4.7 1.8-7.2 1.8L20 55.8c-.3 0-.7.1-1.1.2l-2.5.8-6.7-8.9 1.4-2c1-1.3 2.3-2.4 4.2-3.7 2.6-1.6 5.9-1.3 8.1.8 1.1 1 2.4 1.6 3.9 1.6H32c1 0 1.9.9 1.9 2 0 .5-.2.9-.4 1.2l0 0 0 0c-.4.5-.9.7-1.5.7h-5.7c-.6 0-1 .4-1 1s.4 1 1 1H32c1.1 0 2.1-.4 2.9-1.2 4.2-1 7.4-2.2 9.9-3.7 1.3-.8 3-.7 4.1.3.2.2.2.4.2.5C49 46.7 48.9 46.9 48.8 47z"></path>
    <path fill="currentColor" d="M43.4,30.3c0,2.9-1.8,5.4-4.3,6.5v6.4c0,0.6-0.5,1-1,1c-0.6,0-1-0.5-1-1v-5.9c-0.2,0-0.4,0-0.7,0
          c-0.2,0-0.5,0-0.7,0v2.8c0,0.6-0.5,1-1,1c-0.6,0-1-0.5-1-1v-3.4c-2.5-1.1-4.3-3.6-4.3-6.5c0-0.7,0.1-1.4,0.3-2
          c0.9-0.6,1.7-1.4,2.2-2.4c0.2-0.4,0.4-0.9,0.6-1.3c0.1,0,0.1-0.1,0.2-0.1c0.6,0.8,1.5,1.3,2.5,1.3c0.5,0,1.1-0.2,1.5-0.4
          c0.8-0.5,1.6-0.8,2.4-0.9c0.3-0.1,0.5-0.1,0.8-0.2C42,25.4,43.4,27.7,43.4,30.3z"></path>
  </svg>